<svg width="25" height="25" viewBox="0 0 25 25" fill="none" xmlns="http://www.w3.org/2000/svg">
<rect width="25" height="25" rx="3" fill="url(#paint0_linear_553_74)"/>
<path d="M6.41477 17H5.30682L8.51136 8.27273H9.60227L12.8068 17H11.6989L9.09091 9.65341H9.02273L6.41477 17ZM6.82386 13.5909H11.2898V14.5284H6.82386V13.5909ZM15.956 17.1534C15.5412 17.1534 15.1648 17.0753 14.8267 16.919C14.4886 16.7599 14.2202 16.5312 14.0213 16.233C13.8224 15.9318 13.723 15.5682 13.723 15.142C13.723 14.767 13.7969 14.4631 13.9446 14.2301C14.0923 13.9943 14.2898 13.8097 14.5369 13.6761C14.7841 13.5426 15.0568 13.4432 15.3551 13.3778C15.6563 13.3097 15.9588 13.2557 16.2628 13.2159C16.6605 13.1648 16.983 13.1264 17.2301 13.1009C17.4801 13.0724 17.6619 13.0256 17.7756 12.9602C17.892 12.8949 17.9503 12.7812 17.9503 12.6193V12.5852C17.9503 12.1648 17.8352 11.8381 17.6051 11.6051C17.3778 11.3722 17.0327 11.2557 16.5696 11.2557C16.0895 11.2557 15.7131 11.3608 15.4403 11.571C15.1676 11.7812 14.9759 12.0057 14.8651 12.2443L13.9105 11.9034C14.081 11.5057 14.3082 11.196 14.5923 10.9744C14.8793 10.75 15.1918 10.5937 15.5298 10.5057C15.8707 10.4148 16.206 10.3693 16.5355 10.3693C16.7457 10.3693 16.9872 10.3949 17.2599 10.446C17.5355 10.4943 17.8011 10.5952 18.0568 10.7486C18.3153 10.902 18.5298 11.1335 18.7003 11.4432C18.8707 11.7528 18.956 12.1676 18.956 12.6875V17H17.9503V16.1136H17.8991C17.831 16.2557 17.7173 16.4077 17.5582 16.5696C17.3991 16.7315 17.1875 16.8693 16.9233 16.983C16.6591 17.0966 16.3366 17.1534 15.956 17.1534ZM16.1094 16.25C16.5071 16.25 16.8423 16.1719 17.1151 16.0156C17.3906 15.8594 17.598 15.6577 17.7372 15.4105C17.8793 15.1634 17.9503 14.9034 17.9503 14.6307V13.7102C17.9077 13.7614 17.8139 13.8082 17.669 13.8509C17.527 13.8906 17.3622 13.9261 17.1747 13.9574C16.9901 13.9858 16.8097 14.0114 16.6335 14.0341C16.4602 14.054 16.3196 14.071 16.2116 14.0852C15.9503 14.1193 15.706 14.1747 15.4787 14.2514C15.2543 14.3253 15.0724 14.4375 14.9332 14.5881C14.7969 14.7358 14.7287 14.9375 14.7287 15.1932C14.7287 15.5426 14.858 15.8068 15.1165 15.9858C15.3778 16.1619 15.7088 16.25 16.1094 16.25Z" fill="white"/>
<defs>
<linearGradient id="paint0_linear_553_74" x1="12.5" y1="0" x2="12.5" y2="25" gradientUnits="userSpaceOnUse">
<stop stop-color="#414246"/>
<stop offset="1" stop-color="#D0D1D3"/>
</linearGradient>
</defs>
</svg>
