<svg width="46" height="42" viewBox="0 0 46 42" fill="none" xmlns="http://www.w3.org/2000/svg">
<path d="M26.7594 6.46815C26.6324 6.17924 26.4837 5.90036 26.3145 5.63394C25.6174 4.56872 24.3429 4.16392 23.2271 4.6603C22.1113 5.15669 21.5458 6.38585 21.9035 7.61112C22.0021 7.94837 21.9369 8.16999 21.7217 8.42649C19.8875 10.6029 18.0654 12.7901 16.2376 14.9726C14.1553 17.4603 12.0631 19.9381 9.99224 22.435C9.68092 22.8095 9.33817 22.9466 8.86295 22.9493C7.28901 22.949 5.71534 22.9829 4.14159 23.0087C3.59443 23.0179 3.56549 23.0673 3.80014 23.5825C5.17704 26.6059 6.55384 29.629 7.93051 32.6519C8.19078 33.2234 8.2635 33.2365 8.68151 32.7871C9.772 31.615 10.8615 30.4406 11.9499 29.2639C12.0914 29.1089 12.2308 28.9694 12.465 28.9723C13.1217 28.9811 13.7786 28.9856 14.4356 28.9858C14.6868 28.9864 14.7758 29.1243 14.7607 29.3548C14.7425 29.6556 14.7143 29.9563 14.7005 30.2569C14.6773 30.6553 14.7337 31.0545 14.8664 31.4311C14.9991 31.8078 15.2055 32.1542 15.4733 32.4502C15.7412 32.7463 16.0652 32.9858 16.4263 33.1549C16.7874 33.324 17.1784 33.4192 17.5763 33.435C18.0956 33.4629 18.6151 33.4892 19.1347 33.514C20.7071 33.5884 22.28 33.6834 23.852 33.7272C25.3661 33.7684 26.5196 32.9071 26.9189 31.4974C27.0888 30.8975 27.0555 30.2716 27.0876 29.6584C27.1108 29.216 27.284 29.099 27.6922 29.1115C28.7323 29.1385 29.7741 29.1594 30.8111 29.1399C31.3542 29.1316 31.7307 29.2707 32.0756 29.7566C32.6473 30.5602 33.5197 30.8628 34.4766 30.6317C35.4968 30.3853 36.1806 29.7388 36.3737 28.6548C36.4963 27.9651 36.2634 27.3468 35.9917 26.7461C34.45 23.3462 32.9025 19.9484 31.3493 16.5525C29.8193 13.1902 28.2893 9.82874 26.7594 6.46815ZM25.3924 29.6019C25.3616 30.0117 25.3549 30.4249 25.3057 30.8322C25.2148 31.5817 24.7274 32.0373 23.9789 32.0105C21.8731 31.9348 19.7683 31.8412 17.6642 31.7297C17.1577 31.7032 16.7424 31.4731 16.5374 30.9616C16.2897 30.3898 16.4471 29.8002 16.4803 29.2191C16.4924 28.9962 16.7091 29.0162 16.8698 29.0164C17.9775 29.0208 19.0853 29.0279 20.1931 29.0377C21.7666 29.051 23.3391 29.0701 24.9123 29.0826C25.395 29.0864 25.4284 29.1201 25.3924 29.6019ZM26.8908 18.6256C28.1361 21.36 29.3815 24.0946 30.6271 26.8295C30.8849 27.3957 30.8617 27.4398 30.2592 27.4326C27.2641 27.3948 24.2685 27.3401 21.2712 27.3134C18.2739 27.2866 15.2558 27.2775 12.2483 27.2699C11.7 27.2688 11.246 27.5181 10.8754 27.9132C10.2752 28.5488 9.68508 29.197 9.0854 29.8359C8.78825 30.1523 8.6824 30.1399 8.49662 29.7418C7.79706 28.2216 7.10326 26.6982 6.41521 25.1715C6.22804 24.7605 6.29559 24.6691 6.76033 24.6612C7.65009 24.6454 8.53855 24.6247 9.42705 24.6239C9.71517 24.6323 10.0011 24.5734 10.2623 24.4519C10.5235 24.3305 10.7528 24.1497 10.932 23.924C11.8796 22.7907 12.8343 21.6632 13.7844 20.5314C16.6847 17.076 19.585 13.6184 22.4853 10.1587C22.7784 9.81152 22.8864 9.8366 23.1015 10.3091C24.3669 13.0808 25.63 15.853 26.8908 18.6256ZM34.3521 27.3189C34.4617 27.5552 34.5499 27.8008 34.6159 28.0527C34.7177 28.4546 34.5663 28.7363 34.2067 28.882C33.8471 29.0276 33.5512 28.9288 33.3343 28.5694C33.2262 28.3777 33.129 28.1802 33.0431 27.9776C31.5077 24.6062 29.9725 21.2351 28.4373 17.8642C26.8851 14.4559 25.3327 11.0472 23.7803 7.63838C23.6847 7.45626 23.6102 7.26391 23.5579 7.06502C23.4851 6.70699 23.6126 6.40627 23.9556 6.25004C24.2875 6.09891 24.5673 6.20602 24.7875 6.49147C24.9572 6.72452 25.0999 6.97607 25.2129 7.24129C28.2594 13.9335 31.3059 20.626 34.3521 27.3189Z" fill="#333333"/>
<path d="M39.3233 12.8797C39.0979 12.4444 38.6543 12.3105 38.1249 12.539C37.5738 12.7773 37.0322 13.0366 36.4859 13.2854C35.9396 13.5342 35.3902 13.7744 34.8476 14.0315C34.3184 14.2861 34.1434 14.6646 34.3207 15.1136C34.5116 15.598 34.9603 15.8184 35.5008 15.5885C36.6428 15.1041 37.7718 14.5899 38.8879 14.046C39.408 13.791 39.5474 13.3046 39.3233 12.8797Z" fill="#333333"/>
<path d="M31.2915 10.1212C31.4534 10.0507 31.5881 9.92959 31.6757 9.77601C32.3043 8.71913 32.9383 7.66614 33.5536 6.60175C33.6633 6.41716 33.6989 6.19756 33.6534 5.98724C33.6078 5.77692 33.4845 5.59153 33.3082 5.46843C33.2206 5.4066 33.1217 5.36284 33.0172 5.33974C32.9127 5.31664 32.8047 5.31464 32.6995 5.33387C32.5943 5.35311 32.4941 5.39318 32.4046 5.45175C32.3152 5.51032 32.2383 5.58622 32.1786 5.67499C31.452 6.76651 30.7928 7.90073 30.1678 9.05283C29.9909 9.3797 30.0766 9.72826 30.3433 9.99888C30.61 10.2695 30.9153 10.288 31.2915 10.1212Z" fill="#333333"/>
<path d="M40.2548 21.6191C39.1249 21.403 37.9893 21.202 36.8596 20.9921C36.6437 20.94 36.4172 20.9547 36.2102 21.0344C36.0686 21.104 35.9493 21.2119 35.8657 21.3459C35.7822 21.48 35.7377 21.6348 35.7372 21.7931C35.7281 21.9455 35.7662 22.0972 35.8463 22.2273C35.9264 22.3574 36.0446 22.4597 36.1847 22.5201C36.3592 22.5992 36.5427 22.6562 36.7312 22.6896C37.7964 22.8927 38.8617 23.0885 39.927 23.277C40.5768 23.3922 40.9817 23.1498 41.0751 22.602C41.1581 22.1106 40.8594 21.7341 40.2548 21.6191Z" fill="#333333"/>
</svg>
