<svg width="71" height="71" viewBox="0 0 71 71" fill="none" xmlns="http://www.w3.org/2000/svg">
<path d="M71 35.5C71 55.1105 55.1047 71 35.5 71C15.8953 71 0 55.1105 0 35.5C0 15.901 15.8953 0 35.5 0C55.1047 0 71 15.901 71 35.5ZM35.5 42.6573C31.8634 42.6573 28.9153 45.6053 28.9153 49.2419C28.9153 52.8785 31.8634 55.8266 35.5 55.8266C39.1366 55.8266 42.0847 52.8785 42.0847 49.2419C42.0847 45.6053 39.1366 42.6573 35.5 42.6573ZM29.2484 18.9888L30.3103 38.4565C30.3599 39.3675 31.1132 40.0806 32.0254 40.0806H38.9746C39.8868 40.0806 40.6401 39.3675 40.6897 38.4565L41.7516 18.9888C41.8053 18.0048 41.0218 17.1774 40.0364 17.1774H30.9634C29.978 17.1774 29.1947 18.0048 29.2484 18.9888Z" fill="#2D6BE4"/>
</svg>
