<svg width="30" height="30" viewBox="0 0 30 30" fill="none" xmlns="http://www.w3.org/2000/svg">
<circle cx="15" cy="15" r="15" fill="#2D6BE4"/>
<path d="M22.0129 10.2489C22.0129 9.92883 22.0129 9.60838 22.0129 9.28828C22.0235 8.98985 21.9841 8.7083 21.8001 8.45648C21.4708 8.00571 21.0236 7.81557 20.4822 7.81557C19.5257 7.81557 18.5696 7.8163 17.6132 7.81483C17.4091 7.81447 17.3967 7.79868 17.3923 7.59789C17.3887 7.43968 17.4022 7.28073 17.3704 7.12326C17.2481 6.51721 16.8309 6.12554 16.1723 6C15.3838 6 14.5952 6 13.8067 6C13.6819 6.04442 13.5468 6.04221 13.4249 6.10719C12.8747 6.40122 12.6352 6.87658 12.621 7.48556C12.6133 7.81226 12.6159 7.81263 12.2873 7.81263C11.378 7.81263 10.4686 7.81373 9.55888 7.8119C9.38146 7.81153 9.20806 7.83245 9.03721 7.87687C8.47904 8.02186 8.07418 8.4954 8.01833 9.07464C7.98073 9.46485 8.01577 9.85652 8.00117 10.2467C7.98109 10.7819 8.21984 11.185 8.65098 11.4592C8.85724 11.5902 8.91236 11.7349 8.91236 11.9646C8.90652 15.7364 8.90835 19.5081 8.90835 23.2798C8.90835 23.4263 8.90104 23.5742 8.94266 23.717C9.11424 24.3054 9.46616 24.6978 10.0944 24.787C13.3577 24.787 16.621 24.787 19.8842 24.787C20.5278 24.7298 20.8954 24.3436 21.0769 23.7508C21.1411 23.5408 21.1455 23.318 21.1451 23.097C21.1437 19.3954 21.144 15.6934 21.1444 11.9918C21.1444 11.9246 21.1484 11.8571 21.144 11.7903C21.1357 11.6596 21.19 11.5766 21.3043 11.5109C21.7869 11.2331 22.0468 10.8238 22.0129 10.2489ZM14.3868 6.94376C14.8891 6.96578 15.3933 6.94669 15.8967 6.9489C16.2223 6.95036 16.3957 7.12693 16.4045 7.4573C16.4151 7.8732 16.4151 7.8732 15.9963 7.8732C15.6689 7.8732 15.3414 7.8732 15.014 7.8732C14.5956 7.8732 14.1769 7.86843 13.7589 7.87613C13.6432 7.87834 13.6256 7.84236 13.6198 7.73334C13.5866 7.11041 13.741 6.91549 14.3868 6.94376ZM20.139 23.2589C20.139 23.662 19.9653 23.8389 19.5677 23.8389C16.529 23.8392 13.4902 23.8392 10.4515 23.8389C10.0667 23.8389 9.89912 23.6719 9.89912 23.2835C9.89802 21.3754 9.89875 19.4674 9.89875 17.5596C9.89875 15.6516 9.90131 13.7435 9.89401 11.8358C9.89328 11.6666 9.94292 11.6413 10.0948 11.6416C13.3822 11.646 16.6695 11.6464 19.9569 11.6413C20.1091 11.6409 20.1427 11.6783 20.1427 11.8299C20.1379 15.6391 20.139 19.449 20.139 23.2589ZM21.0623 10.1403C21.0597 10.5158 20.8783 10.6964 20.5023 10.6968C18.1732 10.6971 15.8441 10.6971 13.515 10.6971C12.1928 10.6971 10.8705 10.6898 9.54829 10.7026C9.23252 10.7056 8.92879 10.5169 8.96055 10.1091C8.97953 9.86606 8.96347 9.62012 8.9642 9.37565C8.96493 9.0093 9.146 8.8243 9.50631 8.8243C11.344 8.82393 13.1817 8.82393 15.0194 8.82393C16.8451 8.82393 18.6708 8.82393 20.4964 8.82393C20.8892 8.82393 21.0601 8.99425 21.0619 9.38813C21.0637 9.63884 21.0641 9.88956 21.0623 10.1403Z" fill="white"/>
<path d="M18.2813 17.7418C18.2813 16.5557 18.2813 15.3693 18.2813 14.1833C18.2813 13.8103 18.2828 13.4374 18.2806 13.0644C18.2791 12.8468 18.1689 12.6966 17.9765 12.6078C17.8013 12.527 17.6414 12.5773 17.5048 12.6948C17.3723 12.8086 17.3366 12.9642 17.3369 13.1393C17.3395 16.2088 17.3387 19.2783 17.3391 22.3478C17.3391 22.3908 17.3355 22.4341 17.3417 22.476C17.3709 22.6727 17.4771 22.8085 17.6611 22.8841C17.8341 22.955 17.9853 22.9021 18.1156 22.7905C18.2423 22.6823 18.2839 22.534 18.2835 22.3647C18.2799 20.8234 18.2813 19.2824 18.2813 17.7418Z" fill="white"/>
<path d="M12.6856 17.7616C12.6856 16.2456 12.6856 14.7296 12.6856 13.2135C12.6856 13.1464 12.686 13.0788 12.6813 13.012C12.6539 12.6453 12.2611 12.4552 11.9599 12.6604C11.7693 12.7903 11.7452 12.9834 11.7456 13.1926C11.7467 16.2247 11.7463 19.2567 11.7471 22.2892C11.7471 22.3681 11.7507 22.4485 11.7653 22.5259C11.8281 22.8622 12.1986 23.0145 12.4797 22.824C12.6572 22.7036 12.6882 22.5281 12.6878 22.3288C12.6845 20.8062 12.6856 19.2839 12.6856 17.7616Z" fill="white"/>
<path d="M14.92 12.5809C14.6864 12.6385 14.5411 12.8385 14.5411 13.1157C14.5403 16.1973 14.5403 19.2789 14.5411 22.3602C14.5411 22.6858 14.7444 22.9167 15.02 22.913C15.2942 22.9093 15.4807 22.6894 15.4807 22.3682C15.4811 20.8276 15.4807 19.2866 15.4807 17.746C15.4807 16.1991 15.4807 14.6523 15.4811 13.1054C15.4811 13.0199 15.4829 12.9358 15.4424 12.8554C15.3413 12.6535 15.1146 12.5328 14.92 12.5809Z" fill="white"/>
</svg>
