<svg width="30" height="33" viewBox="0 0 30 33" fill="none" xmlns="http://www.w3.org/2000/svg">
<path d="M14.539 1.73923C14.3294 1.64443 14.1111 1.56072 13.8895 1.50008C12.1547 1.03203 10.4199 0.56568 8.68168 0.109582C7.45783 -0.211565 6.8459 0.161683 6.55149 1.38136C4.53855 9.71923 2.52305 18.0562 0.516962 26.3958C0.326109 27.1867 0.0924649 27.9708 3.4132e-05 28.655C-0.00424507 29.5193 0.393721 29.9754 1.26411 30.2086C3.0648 30.692 4.8672 31.172 6.67045 31.6461C7.78304 31.9382 8.4215 31.559 8.69451 30.4298C10.2521 23.9958 11.8046 17.5609 13.358 11.126C13.9742 8.57557 14.5904 6.02604 15.204 3.47565C15.4069 2.63435 15.1749 2.02792 14.539 1.73923ZM10.6938 11.8306C9.22171 11.436 7.74881 11.0431 6.27677 10.6485C5.65543 10.482 5.40809 10.0404 5.58439 9.41346C5.74272 8.85145 6.18861 8.60632 6.7723 8.76433C8.28285 9.17174 9.79427 9.57745 11.3048 9.98828C11.7713 10.1147 11.9681 10.3701 11.9724 10.8321C11.9801 11.6162 11.446 12.033 10.6938 11.8315V11.8306ZM12.7443 8.08616C12.5792 8.67636 12.1453 8.94113 11.5787 8.79081C10.0656 8.38852 8.55159 7.98623 7.03932 7.57882C6.53181 7.44216 6.35807 7.20642 6.3692 6.70506C6.38717 5.90048 6.88013 5.52894 7.65638 5.73478C9.13099 6.12597 10.6047 6.51545 12.0794 6.90663C12.6665 7.06208 12.9095 7.49512 12.7443 8.08531V8.08616Z" fill="#333333"/>
<path d="M25.4826 2.23433C24.6371 1.93454 23.8574 2.54096 23.8574 3.49928C23.8557 8.14651 23.8565 12.7946 23.8565 17.4418C23.8565 22.0353 23.8565 26.6279 23.8565 31.2213C23.8565 31.3579 23.8505 31.4946 23.8591 31.6304C23.9053 32.2983 24.4453 32.7886 25.112 32.7724C25.8438 32.7544 26.2991 32.2138 26.2991 31.3554C26.2991 22.101 26.2991 12.8467 26.2991 3.59237C26.2991 3.48305 26.3059 3.37287 26.2923 3.26525C26.2281 2.76217 25.9636 2.40515 25.4818 2.23433H25.4826Z" fill="#333333"/>
<path d="M18.2535 2.23249C17.4233 1.94123 16.6402 2.53826 16.6402 3.46754C16.6377 8.14211 16.6394 12.8175 16.6394 17.4921C16.6394 22.0855 16.6394 26.6781 16.6394 31.2715C16.6394 31.3945 16.6342 31.5175 16.6419 31.6397C16.6813 32.2401 17.1495 32.7201 17.7374 32.7671C18.375 32.8183 18.9005 32.4485 19.0349 31.8327C19.0777 31.6363 19.0794 31.4278 19.0794 31.2246C19.0811 22.0522 19.0811 12.8799 19.0811 3.70754C19.0811 3.57089 19.0896 3.43423 19.0759 3.29928C19.0212 2.77827 18.7542 2.40929 18.2535 2.2342V2.23249Z" fill="#333333"/>
<path d="M21.114 2.68527C21.0336 2.5264 20.9172 2.38718 20.7101 2.38291C20.4987 2.37864 20.396 2.517 20.3095 2.68014C20.1521 2.97652 20.0956 3.29596 20.0956 3.62565C20.0956 12.9218 20.0956 22.2172 20.0947 31.5134C20.0947 31.8166 20.1384 32.1121 20.265 32.388C20.3506 32.5733 20.4508 32.7706 20.6981 32.7663C20.9557 32.7621 21.0738 32.5725 21.1611 32.3641C21.2903 32.0557 21.304 31.7303 21.304 31.4015C21.3023 26.7944 21.3032 22.1873 21.3032 17.5802C21.3032 12.9594 21.3032 8.33865 21.304 3.71789C21.304 3.36002 21.2784 3.00727 21.1149 2.68441L21.114 2.68527Z" fill="#333333"/>
<path d="M28.2658 3.71624C28.2658 3.35922 28.241 3.00647 28.0733 2.68362C27.9903 2.52475 27.8747 2.38553 27.6676 2.38382C27.4579 2.38126 27.3527 2.52134 27.2679 2.68362C27.0925 3.01929 27.0548 3.37972 27.0557 3.75212C27.0582 8.35921 27.0574 12.9663 27.0574 17.5734C27.0574 22.1805 27.0574 26.7876 27.0557 31.3947C27.0557 31.7244 27.0779 32.0489 27.2123 32.3539C27.3013 32.5554 27.3989 32.7707 27.6633 32.7655C27.9389 32.7604 28.0544 32.5469 28.1392 32.324C28.2573 32.0131 28.2667 31.6868 28.2667 31.358C28.265 25.4834 28.2658 19.6079 28.2658 13.7333C28.2658 10.3937 28.2658 7.05412 28.2658 3.71453V3.71624Z" fill="#333333"/>
<path d="M22.8438 2.69545C22.7617 2.53744 22.6624 2.38541 22.4501 2.38284C22.2216 2.38028 22.1147 2.53488 22.0265 2.71168C21.8622 3.04051 21.8648 3.39497 21.8648 3.75028C21.8648 8.35652 21.8648 12.9619 21.8648 17.5682C21.8648 22.1872 21.8648 26.8071 21.8648 31.4262C21.8648 31.7951 21.8613 32.165 22.0547 32.4981C22.2696 32.8688 22.5931 32.873 22.8156 32.5066C23.0133 32.1803 23.0398 31.8165 23.0398 31.4432C23.0373 27.1778 23.0381 22.9132 23.0381 18.6478C23.0381 13.6742 23.0373 8.69988 23.0398 3.72637C23.0398 3.36764 23.0116 3.01831 22.8438 2.69545V2.69545Z" fill="#333333"/>
<path d="M29.8025 2.69287C29.722 2.53315 29.6193 2.38453 29.4079 2.38283C29.1785 2.38112 29.0716 2.53828 28.9851 2.71422C28.8225 3.04306 28.8277 3.39922 28.8277 3.75368C28.8277 8.35992 28.8277 12.9653 28.8277 17.5716C28.8277 22.1368 28.8277 26.7012 28.8285 31.2664C28.8285 31.4979 28.8371 31.7294 28.8516 31.9608C28.8653 32.1812 28.9304 32.3905 29.0613 32.5698C29.2599 32.8431 29.5397 32.8474 29.7331 32.5724C29.9343 32.2845 30.0002 31.9514 30.0002 31.6038C30.0002 22.2555 30.0002 12.9081 30.0002 3.5598C30.0002 3.25402 29.9377 2.96448 29.8016 2.69287H29.8025Z" fill="#333333"/>
</svg>
