<svg width="15" height="19" viewBox="0 0 15 19" fill="none" xmlns="http://www.w3.org/2000/svg">
<path d="M14.0129 4.24893C14.0129 3.92883 14.0129 3.60838 14.0129 3.28828C14.0235 2.98985 13.9841 2.7083 13.8001 2.45648C13.4708 2.00571 13.0236 1.81557 12.4822 1.81557C11.5257 1.81557 10.5696 1.8163 9.61319 1.81483C9.40912 1.81447 9.39671 1.79868 9.39233 1.59789C9.38868 1.43968 9.40219 1.28073 9.37043 1.12326C9.24813 0.517213 8.83087 0.125541 8.1723 0C7.38377 0 6.59524 0 5.80672 0C5.68186 0.0444164 5.54679 0.042214 5.42486 0.107187C4.87472 0.401216 4.63524 0.876582 4.621 1.48556C4.61334 1.81226 4.61589 1.81263 4.28734 1.81263C3.37797 1.81263 2.46861 1.81373 1.55888 1.8119C1.38146 1.81153 1.20806 1.83245 1.03721 1.87687C0.479035 2.02186 0.074184 2.4954 0.0183299 3.07464C-0.0192713 3.46485 0.0157745 3.85652 0.00117207 4.24672C-0.0189062 4.78192 0.219843 5.18497 0.650978 5.45918C0.857237 5.59023 0.912361 5.73486 0.912361 5.96465C0.90652 9.73637 0.908345 13.5081 0.908345 17.2798C0.908345 17.4263 0.901044 17.5742 0.942661 17.717C1.11424 18.3054 1.46616 18.6978 2.09442 18.787C5.35769 18.787 8.62096 18.787 11.8842 18.787C12.5278 18.7298 12.8954 18.3436 13.0769 17.7508C13.1411 17.5408 13.1455 17.318 13.1451 17.097C13.1437 13.3954 13.144 9.69342 13.1444 5.99181C13.1444 5.92464 13.1484 5.85709 13.144 5.79029C13.1357 5.65961 13.19 5.57665 13.3043 5.51094C13.7869 5.23306 14.0468 4.82377 14.0129 4.24893ZM6.3868 0.943757C6.88912 0.965782 7.39326 0.946694 7.89668 0.948896C8.22231 0.950365 8.39572 1.12693 8.40448 1.4573C8.41507 1.8732 8.41507 1.8732 7.99634 1.8732C7.66888 1.8732 7.34143 1.8732 7.01397 1.8732C6.59561 1.8732 6.17689 1.86843 5.75889 1.87613C5.64317 1.87834 5.62565 1.84236 5.6198 1.73334C5.58658 1.11041 5.741 0.915492 6.3868 0.943757ZM12.139 17.2589C12.139 17.662 11.9653 17.8389 11.5677 17.8389C8.52896 17.8392 5.49021 17.8392 2.45145 17.8389C2.06668 17.8389 1.89912 17.6719 1.89912 17.2835C1.89802 15.3754 1.89875 13.4674 1.89875 11.5596C1.89875 9.65158 1.90131 7.74351 1.89401 5.8358C1.89328 5.66658 1.94292 5.64125 2.09479 5.64162C5.38215 5.64602 8.66951 5.64639 11.9569 5.64125C12.1091 5.64088 12.1427 5.67833 12.1427 5.82993C12.1379 9.6391 12.139 13.449 12.139 17.2589ZM13.0623 4.14027C13.0597 4.51579 12.8783 4.69639 12.5023 4.69676C10.1732 4.69713 7.84411 4.69713 5.51503 4.69713C4.19279 4.69713 2.87054 4.68979 1.54829 4.70263C1.23252 4.70557 0.928789 4.51689 0.960549 4.10907C0.979532 3.86606 0.963469 3.62012 0.964199 3.37565C0.964929 3.0093 1.146 2.8243 1.50631 2.8243C3.34402 2.82393 5.18173 2.82393 7.01944 2.82393C8.84511 2.82393 10.6708 2.82393 12.4964 2.82393C12.8892 2.82393 13.0601 2.99425 13.0619 3.38813C13.0637 3.63884 13.0641 3.88956 13.0623 4.14027Z" fill="#C4C4C4"/>
<path d="M10.2813 11.7413C10.2813 10.5552 10.2813 9.36884 10.2813 8.18281C10.2813 7.80986 10.2828 7.43691 10.2806 7.06396C10.2791 6.84628 10.1689 6.69615 9.9765 6.60731C9.80127 6.52656 9.64138 6.57685 9.50484 6.69431C9.37233 6.8081 9.33655 6.96375 9.33692 7.13884C9.33947 10.2083 9.33874 13.2779 9.33911 16.3474C9.33911 16.3903 9.33546 16.4336 9.34166 16.4755C9.37087 16.6722 9.4771 16.808 9.66109 16.8837C9.83413 16.9545 9.98526 16.9016 10.1156 16.7901C10.2423 16.6818 10.2839 16.5335 10.2835 16.3642C10.2799 14.8229 10.2813 13.2819 10.2813 11.7413Z" fill="#C4C4C4"/>
<path d="M4.68564 11.7616C4.68564 10.2456 4.68564 8.72957 4.68564 7.21354C4.68564 7.14637 4.686 7.07883 4.68126 7.01202C4.65388 6.64531 4.26107 6.45516 3.9599 6.66036C3.76934 6.7903 3.74524 6.98339 3.74561 7.19262C3.7467 10.2247 3.74634 13.2567 3.74707 16.2892C3.74707 16.3681 3.75072 16.4485 3.76532 16.5259C3.82811 16.8622 4.19865 17.0145 4.47975 16.824C4.65716 16.7036 4.68819 16.5281 4.68783 16.3288C4.68454 14.8062 4.68564 13.2839 4.68564 11.7616Z" fill="#C4C4C4"/>
<path d="M6.92001 6.58036C6.68637 6.63799 6.54107 6.83805 6.54107 7.1152C6.54034 10.1968 6.54034 13.2784 6.54107 16.3597C6.54107 16.6853 6.74441 16.9162 7.02003 16.9125C7.29419 16.9088 7.48074 16.689 7.48074 16.3678C7.4811 14.8271 7.48074 13.2861 7.48074 11.7455C7.48074 10.1986 7.48074 8.65178 7.4811 7.10492C7.4811 7.01939 7.48293 6.93533 7.44241 6.85494C7.34128 6.65304 7.11458 6.53228 6.92001 6.58036Z" fill="#C4C4C4"/>
</svg>
