<svg width="15" height="16" viewBox="0 0 15 16" fill="none" xmlns="http://www.w3.org/2000/svg">
<mask id="path-1-inside-1_241_84" fill="white">
<path d="M8.51787 2.91356L12.2684 6.91425L4.12433 15.6016L0.780474 15.9953C0.332829 16.0482 -0.0453838 15.6444 0.00441962 15.1669L0.37648 11.5975L8.51787 2.91356ZM14.588 2.31793L12.827 0.43946C12.2777 -0.146487 11.3868 -0.146487 10.8375 0.43946L9.18084 2.20668L12.9313 6.20737L14.588 4.44015C15.1373 3.85389 15.1373 2.90388 14.588 2.31793Z"/>
</mask>
<path d="M8.51787 2.91356L9.24742 2.22964L8.5179 1.45144L7.78834 2.22961L8.51787 2.91356ZM12.2684 6.91425L12.9979 7.59818L13.6391 6.91425L12.9979 6.23033L12.2684 6.91425ZM4.12433 15.6016L4.24128 16.5947L4.60406 16.552L4.85388 16.2855L4.12433 15.6016ZM0.780474 15.9953L0.663526 15.0022L0.663306 15.0022L0.780474 15.9953ZM0.00441962 15.1669L0.999025 15.2706L0.999031 15.2706L0.00441962 15.1669ZM0.37648 11.5975L-0.353047 10.9135L-0.583239 11.159L-0.618131 11.4938L0.37648 11.5975ZM14.588 2.31793L13.8585 3.00185L14.588 2.31793ZM12.827 0.43946L13.5566 -0.244465V-0.244465L12.827 0.43946ZM10.8375 0.43946L11.5671 1.12339L10.8375 0.43946ZM9.18084 2.20668L8.45129 1.52275L7.81014 2.20668L8.45129 2.8906L9.18084 2.20668ZM12.9313 6.20737L12.2018 6.89129L12.9313 7.66952L13.6609 6.89129L12.9313 6.20737ZM14.588 4.44015L15.3176 5.12408L15.3178 5.12388L14.588 4.44015ZM7.78832 3.59749L11.5388 7.59818L12.9979 6.23033L9.24742 2.22964L7.78832 3.59749ZM11.5388 6.23033L3.39478 14.9177L4.85388 16.2855L12.9979 7.59818L11.5388 6.23033ZM4.00738 14.6084L0.663526 15.0022L0.897421 16.9885L4.24128 16.5947L4.00738 14.6084ZM0.663306 15.0022C0.783832 14.988 0.883534 15.0406 0.935716 15.0963C0.986104 15.1501 1.00475 15.2158 0.999025 15.2706L-0.990185 15.0632C-1.09761 16.0931 -0.268634 17.1261 0.897641 16.9885L0.663306 15.0022ZM0.999031 15.2706L1.37109 11.7011L-0.618131 11.4938L-0.990192 15.0632L0.999031 15.2706ZM1.10601 12.2814L9.2474 3.59752L7.78834 2.22961L-0.353047 10.9135L1.10601 12.2814ZM15.3176 1.634L13.5566 -0.244465L12.0975 1.12339L13.8585 3.00185L15.3176 1.634ZM13.5566 -0.244465C12.6122 -1.25184 11.0524 -1.25184 10.108 -0.244465L11.5671 1.12339C11.6521 1.03274 11.7477 1 11.8323 1C11.9168 1 12.0125 1.03274 12.0975 1.12339L13.5566 -0.244465ZM10.108 -0.244465L8.45129 1.52275L9.91039 2.8906L11.5671 1.12339L10.108 -0.244465ZM8.45129 2.8906L12.2018 6.89129L13.6609 5.52344L9.91039 1.52275L8.45129 2.8906ZM13.6609 6.89129L15.3176 5.12408L13.8585 3.75623L12.2018 5.52344L13.6609 6.89129ZM15.3178 5.12388C16.2273 4.15313 16.2276 2.60471 15.3176 1.634L13.8585 3.00185C14.0471 3.20305 14.0473 3.55466 13.8583 3.75642L15.3178 5.12388Z" fill="#515151" mask="url(#path-1-inside-1_241_84)"/>
</svg>
