<svg width="65" height="27" viewBox="0 0 65 27" fill="none" xmlns="http://www.w3.org/2000/svg">
<rect x="0.75" y="0.75" width="63.5" height="25.5" rx="5.25" fill="white" stroke="#DBDDDC" stroke-width="0.5" stroke-linejoin="bevel"/>
<path fill-rule="evenodd" clip-rule="evenodd" d="M33 26.0002L59.1111 26.0002C61.8725 26.0002 64.1111 23.7616 64.1111 21.0002V6C64.1111 3.23858 61.8725 1 59.1111 1L33 1V26.0002Z" fill="#D45050"/>
<path d="M44.6699 13.5V13.9688C44.6699 14.6133 44.5859 15.1914 44.418 15.7031C44.25 16.2148 44.0098 16.6504 43.6973 17.0098C43.3887 17.3691 43.0176 17.6445 42.584 17.8359C42.1504 18.0234 41.6699 18.1172 41.1426 18.1172C40.6191 18.1172 40.1406 18.0234 39.707 17.8359C39.2773 17.6445 38.9043 17.3691 38.5879 17.0098C38.2715 16.6504 38.0254 16.2148 37.8496 15.7031C37.6777 15.1914 37.5918 14.6133 37.5918 13.9688V13.5C37.5918 12.8555 37.6777 12.2793 37.8496 11.7715C38.0215 11.2598 38.2637 10.8242 38.5762 10.4648C38.8926 10.1016 39.2656 9.82617 39.6953 9.63867C40.1289 9.44727 40.6074 9.35156 41.1309 9.35156C41.6582 9.35156 42.1387 9.44727 42.5723 9.63867C43.0059 9.82617 43.3789 10.1016 43.6914 10.4648C44.0039 10.8242 44.2441 11.2598 44.4121 11.7715C44.584 12.2793 44.6699 12.8555 44.6699 13.5ZM43.1992 13.9688V13.4883C43.1992 13.0117 43.1523 12.5918 43.0586 12.2285C42.9688 11.8613 42.834 11.5547 42.6543 11.3086C42.4785 11.0586 42.2617 10.8711 42.0039 10.7461C41.7461 10.6172 41.4551 10.5527 41.1309 10.5527C40.8066 10.5527 40.5176 10.6172 40.2637 10.7461C40.0098 10.8711 39.793 11.0586 39.6133 11.3086C39.4375 11.5547 39.3027 11.8613 39.209 12.2285C39.1152 12.5918 39.0684 13.0117 39.0684 13.4883V13.9688C39.0684 14.4453 39.1152 14.8672 39.209 15.2344C39.3027 15.6016 39.4395 15.9121 39.6191 16.166C39.8027 16.416 40.0215 16.6055 40.2754 16.7344C40.5293 16.8594 40.8184 16.9219 41.1426 16.9219C41.4707 16.9219 41.7617 16.8594 42.0156 16.7344C42.2695 16.6055 42.4844 16.416 42.6602 16.166C42.8359 15.9121 42.9688 15.6016 43.0586 15.2344C43.1523 14.8672 43.1992 14.4453 43.1992 13.9688ZM47.6113 9.46875V18H46.1406V9.46875H47.6113ZM51.0918 13.2012V14.3672H47.2363V13.2012H51.0918ZM51.5781 9.46875V10.6406H47.2363V9.46875H51.5781ZM54.2207 9.46875V18H52.75V9.46875H54.2207ZM57.7012 13.2012V14.3672H53.8457V13.2012H57.7012ZM58.1875 9.46875V10.6406H53.8457V9.46875H58.1875Z" fill="white"/>
<path d="M15.6699 13.5V13.9688C15.6699 14.6133 15.5859 15.1914 15.418 15.7031C15.25 16.2148 15.0098 16.6504 14.6973 17.0098C14.3887 17.3691 14.0176 17.6445 13.584 17.8359C13.1504 18.0234 12.6699 18.1172 12.1426 18.1172C11.6191 18.1172 11.1406 18.0234 10.707 17.8359C10.2773 17.6445 9.9043 17.3691 9.58789 17.0098C9.27148 16.6504 9.02539 16.2148 8.84961 15.7031C8.67773 15.1914 8.5918 14.6133 8.5918 13.9688V13.5C8.5918 12.8555 8.67773 12.2793 8.84961 11.7715C9.02148 11.2598 9.26367 10.8242 9.57617 10.4648C9.89258 10.1016 10.2656 9.82617 10.6953 9.63867C11.1289 9.44727 11.6074 9.35156 12.1309 9.35156C12.6582 9.35156 13.1387 9.44727 13.5723 9.63867C14.0059 9.82617 14.3789 10.1016 14.6914 10.4648C15.0039 10.8242 15.2441 11.2598 15.4121 11.7715C15.584 12.2793 15.6699 12.8555 15.6699 13.5ZM14.1992 13.9688V13.4883C14.1992 13.0117 14.1523 12.5918 14.0586 12.2285C13.9688 11.8613 13.834 11.5547 13.6543 11.3086C13.4785 11.0586 13.2617 10.8711 13.0039 10.7461C12.7461 10.6172 12.4551 10.5527 12.1309 10.5527C11.8066 10.5527 11.5176 10.6172 11.2637 10.7461C11.0098 10.8711 10.793 11.0586 10.6133 11.3086C10.4375 11.5547 10.3027 11.8613 10.209 12.2285C10.1152 12.5918 10.0684 13.0117 10.0684 13.4883V13.9688C10.0684 14.4453 10.1152 14.8672 10.209 15.2344C10.3027 15.6016 10.4395 15.9121 10.6191 16.166C10.8027 16.416 11.0215 16.6055 11.2754 16.7344C11.5293 16.8594 11.8184 16.9219 12.1426 16.9219C12.4707 16.9219 12.7617 16.8594 13.0156 16.7344C13.2695 16.6055 13.4844 16.416 13.6602 16.166C13.8359 15.9121 13.9688 15.6016 14.0586 15.2344C14.1523 14.8672 14.1992 14.4453 14.1992 13.9688ZM23.9082 9.46875V18H22.4375L18.6113 11.8887V18H17.1406V9.46875H18.6113L22.4492 15.5918V9.46875H23.9082Z" fill="#313131"/>
</svg>
