<svg width="25" height="26" viewBox="0 0 25 26" fill="none" xmlns="http://www.w3.org/2000/svg">
<path d="M14.6786 10.2143V10.7143H15.1786H23.2143C23.9059 10.7143 24.5 11.3034 24.5 12.0714V13.9286C24.5 14.6966 23.9059 15.2857 23.2143 15.2857H15.1786H14.6786V15.7857V24.1429C14.6786 24.9109 14.0845 25.5 13.3929 25.5H11.6071C10.9155 25.5 10.3214 24.9109 10.3214 24.1429V15.7857V15.2857H9.82143H1.78571C1.09411 15.2857 0.5 14.6966 0.5 13.9286V12.0714C0.5 11.3034 1.09411 10.7143 1.78571 10.7143H9.82143H10.3214V10.2143V1.85714C10.3214 1.08913 10.9155 0.5 11.6071 0.5H13.3929C14.0845 0.5 14.6786 1.08913 14.6786 1.85714V10.2143Z" stroke="#313131"/>
</svg>
