<svg width="39" height="35" viewBox="0 0 39 35" fill="none" xmlns="http://www.w3.org/2000/svg">
<path d="M29.5833 4.375V5.125H30.3333H37.375C37.8546 5.125 38.25 5.51388 38.25 6.01562V9.84375C38.25 11.9653 36.9087 14.2736 34.3678 16.1209L34.3667 16.1217C32.3518 17.5924 29.883 18.5325 27.2751 18.8331L26.9069 18.8755L26.717 19.1937C25.6967 20.9028 24.5932 22.1052 23.7516 22.8763C23.3308 23.2618 22.976 23.539 22.7306 23.7174C22.6079 23.8065 22.5127 23.8708 22.4505 23.9115C22.4193 23.9319 22.3965 23.9463 22.3825 23.955L22.3684 23.9637L22.3682 23.9638L22.3678 23.9641L22.3674 23.9643L22.3669 23.9646L22.3665 23.9648L22 24.1816V24.6094V29.5312V30.2812H22.75H26C27.053 30.2812 27.9562 30.5931 28.5821 31.116C29.1943 31.6274 29.5833 32.3728 29.5833 33.3594V34.1797C29.5833 34.199 29.5761 34.2168 29.5618 34.2312C29.5476 34.2456 29.5333 34.25 29.5208 34.25H9.47917C9.46669 34.25 9.4524 34.2456 9.4382 34.2312C9.4239 34.2168 9.41667 34.199 9.41667 34.1797V33.3594C9.41667 32.3728 9.80566 31.6274 10.4179 31.116C11.0438 30.5931 11.947 30.2812 13 30.2812H16.25H17V29.5312V24.6094V24.1816L16.6335 23.9648L16.6331 23.9646L16.6326 23.9643L16.6322 23.9641L16.6318 23.9638L16.6316 23.9637L16.6175 23.955C16.6035 23.9463 16.5807 23.9319 16.5495 23.9115C16.4873 23.8708 16.3921 23.8065 16.2694 23.7174C16.024 23.539 15.6692 23.2618 15.2484 22.8763C14.4068 22.1052 13.3033 20.9028 12.283 19.1937L12.0932 18.8756L11.7251 18.8331C9.12414 18.5326 6.65481 17.5925 4.63239 16.1211L4.63144 16.1204C2.08528 14.274 0.75 11.966 0.75 9.84375V6.01562C0.75 5.51388 1.14544 5.125 1.625 5.125H8.66667H9.41667V4.375V1.64062C9.41667 1.13888 9.81211 0.75 10.2917 0.75H28.7083C29.1879 0.75 29.5833 1.13888 29.5833 1.64062V4.375ZM4.33333 8H3.58333V8.75V9.84375C3.58333 10.4457 3.85065 11.125 4.28549 11.7749C4.73133 12.4414 5.39356 13.139 6.28192 13.786L6.72331 13.1799L6.28245 13.7863C7.19163 14.4472 8.21257 14.9727 9.30058 15.351L10.652 15.8208L10.2696 14.4421C9.81164 12.7908 9.49574 10.8954 9.42986 8.72722L9.40777 8H8.68021H4.33333ZM32.7176 13.7863L32.7182 13.7859C33.3627 13.3164 34.0153 12.7084 34.5147 12.0538C34.9978 11.4208 35.4167 10.6407 35.4167 9.84375V8.75V8H34.6667H30.313H29.5855L29.5634 8.72722C29.4975 10.8954 29.1816 12.7908 28.7236 14.4421L28.3413 15.8208L29.6927 15.351C30.7792 14.9732 31.8072 14.4481 32.7176 13.7863Z" stroke="#333333" stroke-width="1.5"/>
</svg>
