<svg width="33" height="27" viewBox="0 0 33 27" fill="none" xmlns="http://www.w3.org/2000/svg">
<path d="M1.03125 21.3692H5.15625C5.26927 21.3692 5.37851 21.4144 5.45971 21.4962C5.54106 21.5781 5.5875 21.6901 5.5875 21.8077V25.9615C5.5875 26.0792 5.54106 26.1911 5.45971 26.2731C5.37851 26.3548 5.26927 26.4 5.15625 26.4H1.03125C0.918229 26.4 0.808987 26.3548 0.727786 26.2731C0.646444 26.1911 0.6 26.0792 0.6 25.9615V21.8077C0.6 21.6901 0.646444 21.5781 0.727786 21.4962C0.808987 21.4144 0.918229 21.3692 1.03125 21.3692ZM1.03125 0.6H5.15625C5.26927 0.6 5.37851 0.645172 5.45971 0.726942C5.54106 0.808853 5.5875 0.920831 5.5875 1.03846V5.19231C5.5875 5.30994 5.54106 5.42192 5.45971 5.50383C5.37851 5.5856 5.26927 5.63077 5.15625 5.63077H1.03125C0.91823 5.63077 0.808988 5.5856 0.727786 5.50383C0.646444 5.42192 0.6 5.30994 0.6 5.19231V1.03846C0.6 0.92083 0.646444 0.808853 0.727786 0.726942C0.808988 0.645172 0.91823 0.6 1.03125 0.6ZM1.03125 10.9846H5.15625C5.26927 10.9846 5.37851 11.0298 5.45971 11.1116C5.54106 11.1935 5.5875 11.3054 5.5875 11.4231V15.5769C5.5875 15.6946 5.54106 15.8065 5.45971 15.8884C5.37851 15.9702 5.26927 16.0154 5.15625 16.0154H1.03125C0.918229 16.0154 0.808987 15.9702 0.727786 15.8884C0.646444 15.8065 0.6 15.6946 0.6 15.5769V11.4231C0.6 11.3054 0.646444 11.1935 0.727786 11.1116C0.808988 11.0298 0.91823 10.9846 1.03125 10.9846ZM11.3438 22.4077H31.9688C32.0818 22.4077 32.191 22.4529 32.2722 22.5346C32.3536 22.6165 32.4 22.7285 32.4 22.8462V24.9231C32.4 25.0407 32.3536 25.1527 32.2722 25.2346C32.191 25.3164 32.0818 25.3615 31.9688 25.3615H11.3438C11.2307 25.3615 11.1215 25.3164 11.0403 25.2346C10.9589 25.1527 10.9125 25.0407 10.9125 24.9231V22.8462C10.9125 22.7285 10.9589 22.6165 11.0403 22.5346C11.1215 22.4529 11.2307 22.4077 11.3438 22.4077ZM11.3438 1.63846H31.9688C32.0818 1.63846 32.191 1.68363 32.2722 1.7654C32.3536 1.84731 32.4 1.95929 32.4 2.07692V4.15385C32.4 4.27148 32.3536 4.38346 32.2722 4.46537C32.191 4.54714 32.0818 4.59231 31.9688 4.59231H11.3438C11.2307 4.59231 11.1215 4.54714 11.0403 4.46537C10.9589 4.38345 10.9125 4.27148 10.9125 4.15385V2.07692C10.9125 1.95929 10.9589 1.84731 11.0403 1.7654C11.1215 1.68363 11.2307 1.63846 11.3438 1.63846ZM11.3438 12.0231H31.9688C32.0818 12.0231 32.191 12.0682 32.2722 12.15C32.3536 12.2319 32.4 12.3439 32.4 12.4615V14.5385C32.4 14.6561 32.3536 14.7681 32.2722 14.85C32.191 14.9318 32.0818 14.9769 31.9688 14.9769H11.3438C11.2307 14.9769 11.1215 14.9318 11.0403 14.85C10.9589 14.7681 10.9125 14.6561 10.9125 14.5385V12.4615C10.9125 12.3439 10.9589 12.2319 11.0403 12.15C11.1215 12.0682 11.2307 12.0231 11.3438 12.0231Z" stroke="#2D6BE4" stroke-width="1.2"/>
</svg>
