<svg width="27" height="21" viewBox="0 0 27 21" fill="none" xmlns="http://www.w3.org/2000/svg">
<path d="M26.6263 10.9702L17.6259 19.7187C16.8223 20.4998 15.4293 19.953 15.4293 18.8334V13.8343H8.14326C7.43073 13.8343 6.85748 13.2771 6.85748 12.5845V7.58531C6.85748 6.89272 7.43073 6.33552 8.14326 6.33552H15.4293V1.33635C15.4293 0.221951 16.8169 -0.330041 17.6259 0.45108L26.6263 9.19963C27.1246 9.68913 27.1246 10.4807 26.6263 10.9702ZM10.2862 19.4583V17.3754C10.2862 17.0317 9.99692 16.7505 9.64334 16.7505H5.14311C4.19485 16.7505 3.42874 16.0058 3.42874 15.0841V5.08573C3.42874 4.164 4.19485 3.41934 5.14311 3.41934H9.64334C9.99692 3.41934 10.2862 3.13813 10.2862 2.79444V0.711453C10.2862 0.36776 9.99692 0.0865568 9.64334 0.0865568H5.14311C2.30369 0.0865568 0 2.32577 0 5.08573V15.0841C0 17.844 2.30369 20.0832 5.14311 20.0832H9.64334C9.99692 20.0832 10.2862 19.802 10.2862 19.4583Z" fill="#333333"/>
</svg>
