<svg width="30" height="32" viewBox="0 0 30 32" fill="none" xmlns="http://www.w3.org/2000/svg">
<path d="M14.4011 31.8837C13.8075 31.8837 13.2163 31.8649 12.6177 31.8434C11.1564 31.7907 9.9397 31.7143 8.78871 31.6033C7.02936 31.4336 5.15258 31.2076 3.34547 30.7087C2.49614 30.4742 1.86875 30.226 1.31032 29.9039C1.10885 29.7876 0.920307 29.6553 0.749364 29.5103C0.243358 29.0807 -0.00874651 28.5379 0.00023159 27.8962L0.00418195 27.5956C0.021779 26.2777 0.0397352 24.9153 0.213551 23.5678C0.471402 21.5678 0.946523 20.0014 1.70822 18.6379C2.80894 16.6676 4.49 15.2815 6.70471 14.5178C7.18379 14.3526 7.60073 14.2342 7.99505 14.1525C7.99433 14.0782 7.99505 14.0033 7.9972 13.928C6.48529 13.1253 5.36195 11.946 4.65735 10.4206C3.24887 7.37154 4.17828 3.66159 6.86776 1.59905C8.01157 0.72142 9.30333 0.199156 10.7071 0.0460475C12.2209 -0.118729 13.7274 0.160613 15.064 0.853666C16.4115 1.55238 17.4985 2.62767 18.2078 3.96321C19.1502 5.73757 19.3347 7.75166 18.7271 9.63422C18.1306 11.4828 16.8363 13.003 15.0763 13.9265C15.0788 14.0026 15.0791 14.0772 15.0788 14.1497C16.474 14.4594 17.6706 14.9739 18.7293 15.7175C18.7357 15.7214 18.7422 15.7249 18.749 15.7285C18.8478 15.7833 19.1096 15.9286 19.1509 16.2575C19.1742 16.4431 19.162 16.6164 19.1509 16.7695L19.1476 16.8158C19.1383 16.9541 19.0719 17.2069 18.7332 17.343L18.7307 17.3441C18.3935 17.506 18.1263 17.6567 17.8903 17.8168C17.6318 17.9926 17.3412 17.9972 17.0719 17.8303C16.7577 17.6358 16.5232 17.5449 16.2872 17.5265C15.6692 17.4781 15.2246 17.6821 14.9283 18.1496C14.3695 19.0318 13.8161 19.9724 13.2375 21.0243C12.8716 21.6898 13.1355 22.5116 13.8384 22.8956C14.5404 23.2792 14.4377 23.8337 14.4036 24.0158C14.3724 24.1834 14.3925 24.3817 14.4165 24.5536C14.4711 24.9475 14.3027 25.2601 13.9425 25.4341C13.5924 25.6031 13.3546 25.8389 13.216 26.1554C13.0181 26.6066 13.0328 27.0203 13.2605 27.4202C13.7561 28.2904 14.2768 29.1688 14.7807 30.0177L14.8866 30.1963C15.0332 30.4435 15.249 30.6281 15.5463 30.7603C15.5869 30.7783 15.6275 30.7957 15.6681 30.813L15.7306 30.8395C15.9597 30.9378 16.0901 31.1786 16.0452 31.4205C16.0003 31.6623 15.7923 31.8427 15.5428 31.8554C15.1592 31.8759 14.7796 31.8837 14.4011 31.8837ZM11.5522 1.06087C11.3105 1.06087 11.0681 1.07396 10.8253 1.10048C9.62296 1.23131 8.51398 1.68073 7.52962 2.43566C5.22872 4.20047 4.43326 7.37366 5.63776 9.9811C6.2612 11.3308 7.26818 12.3658 8.6307 13.0574C9.02609 13.2582 9.09325 13.579 9.07996 13.813C9.06919 14.0047 9.06919 14.1921 9.07996 14.3696C9.1051 14.7791 8.86736 15.0761 8.45903 15.1447C8.04173 15.2151 7.5975 15.3339 7.06061 15.5188C6.08702 15.8544 5.22512 16.3261 4.49898 16.9208C3.76241 17.5237 3.14113 18.2737 2.652 19.1492C1.95782 20.3921 1.52256 21.8387 1.2823 23.7014C1.11603 24.9892 1.09843 26.3212 1.08119 27.6094L1.07724 27.9107C1.07258 28.237 1.18821 28.4824 1.45253 28.7066C1.57391 28.8099 1.7093 28.9046 1.85475 28.9884C2.33023 29.2628 2.87969 29.4782 3.63636 29.6871C5.26678 30.1376 6.91732 30.3568 8.89357 30.5474C10.0223 30.6563 11.2182 30.7313 12.6572 30.7833C13.1118 30.7996 13.5622 30.8144 14.0104 30.8201C13.9917 30.7911 13.9734 30.7621 13.9558 30.732L13.8498 30.5534C13.3438 29.7002 12.8202 28.818 12.3203 27.9393C11.9285 27.2508 11.8962 26.4888 12.2266 25.7353C12.4485 25.229 12.8195 24.8319 13.3309 24.5525C13.3068 24.3347 13.2968 24.0904 13.3417 23.8383C13.3341 23.8337 13.3255 23.8291 13.3158 23.8234C12.7319 23.5045 12.3031 22.99 12.1081 22.3744C11.9106 21.7503 11.9752 21.0915 12.2902 20.5194C12.8795 19.448 13.4437 18.489 14.0143 17.5881C14.5218 16.7872 15.3596 16.3897 16.3727 16.4689C16.8076 16.5029 17.1725 16.6613 17.4623 16.8236C17.6293 16.7189 17.8085 16.6174 18.0089 16.5145C17.0256 15.8441 15.9008 15.3901 14.5746 15.1277C14.1986 15.0535 13.9824 14.783 13.9956 14.4043C14.0018 14.2356 14.0068 14.0401 13.9953 13.8548C13.9723 13.4909 14.1371 13.2095 14.4722 13.0404C16.0326 12.253 17.1793 10.9291 17.7011 9.31244C18.2211 7.70145 18.0624 5.97624 17.254 4.454C16.6463 3.31011 15.7159 2.38934 14.5627 1.79141C13.6304 1.30945 12.6022 1.06087 11.5522 1.06087ZM18.0728 16.7433C18.0728 16.744 18.0728 16.7444 18.0728 16.7451V16.7433Z" fill="#2D6BE4"/>
<path d="M29.1066 26.6672C28.6778 26.4335 28.2591 26.1817 27.8292 25.9501C27.6985 25.8797 27.6716 25.8115 27.7111 25.6736C27.9966 24.675 27.9865 23.6747 27.7014 22.6779C27.6709 22.5715 27.6928 22.5227 27.7876 22.4703C28.2307 22.2257 28.6678 21.9707 29.1113 21.7264C29.2137 21.6698 29.2262 21.6267 29.1659 21.5252C28.6857 20.7176 28.2088 19.9078 27.7387 19.0945C27.6665 18.9697 27.6094 18.9665 27.4931 19.0351C27.0722 19.2827 26.6448 19.5189 26.2218 19.7628C26.1421 19.8088 26.09 19.8237 26.0099 19.7469C25.2417 19.0076 24.3328 18.5051 23.3007 18.2187C23.1929 18.1886 23.1603 18.1441 23.1613 18.0373C23.1667 17.5426 23.161 17.0476 23.1656 16.5525C23.1667 16.4433 23.1452 16.3987 23.0195 16.3994C22.0621 16.4047 21.1046 16.4047 20.1476 16.3994C20.0172 16.3987 19.9881 16.4415 19.9896 16.5614C19.9957 17.0444 19.9878 17.5278 19.9946 18.0108C19.9964 18.1363 19.9633 18.1907 19.8315 18.2275C18.8188 18.5108 17.9235 19.0023 17.1683 19.7289C17.0853 19.8088 17.0286 19.8198 16.928 19.7611C16.4963 19.5086 16.0575 19.2678 15.6262 19.015C15.5285 18.9577 15.4883 18.9747 15.4351 19.0663C14.9593 19.8834 14.4817 20.6992 13.9976 21.5114C13.9261 21.6313 13.9552 21.6769 14.0672 21.738C14.4903 21.9696 14.9047 22.2172 15.3296 22.4452C15.4621 22.5163 15.4829 22.587 15.4452 22.7232C15.1679 23.7168 15.1715 24.7125 15.452 25.7047C15.4872 25.8288 15.4495 25.8815 15.3446 25.9391C14.9119 26.1778 14.486 26.4289 14.0525 26.6665C13.943 26.7266 13.9304 26.7729 13.994 26.8797C14.4774 27.6926 14.9561 28.5077 15.4301 29.3255C15.4919 29.4316 15.5411 29.4327 15.6384 29.3761C16.0661 29.1282 16.4996 28.8903 16.9259 28.6406C17.0257 28.5819 17.0824 28.5883 17.1672 28.6689C17.9257 29.391 18.8156 29.8917 19.833 30.1657C19.9662 30.2018 19.9957 30.2615 19.9942 30.3856C19.9878 30.8747 19.9957 31.3637 19.9888 31.8527C19.987 31.9705 20.0229 31.9998 20.1389 31.9984C20.6177 31.992 21.0964 31.9959 21.5751 31.9956C22.0419 31.9956 22.5088 31.9867 22.975 32.0002C23.1423 32.0051 23.1696 31.9503 23.1667 31.8028C23.1574 31.3258 23.166 30.8485 23.1613 30.3711C23.1603 30.2619 23.1836 30.2099 23.3046 30.1767C24.3321 29.8959 25.2353 29.3948 26.0009 28.6618C26.0832 28.5833 26.1388 28.5851 26.229 28.6374C26.6513 28.8825 27.079 29.1187 27.5006 29.3648C27.6069 29.427 27.663 29.4383 27.7351 29.3132C28.2042 28.4992 28.6811 27.6894 29.1601 26.8811C29.2212 26.7789 29.2216 26.7298 29.1066 26.6672ZM21.542 27.1831C19.8876 27.1785 18.5426 25.8278 18.5484 24.1754C18.5541 22.534 19.9131 21.2105 21.5884 21.214C23.2623 21.2175 24.6208 22.563 24.6154 24.2125C24.6104 25.8624 23.2393 27.1873 21.542 27.1831Z" fill="#2D6BE4"/>
</svg>
